<?xml version="1.0" standalone="no"?>
<!DOCTYPE svg PUBLIC "-//W3C//DTD SVG 20010904//EN"
 "http://www.w3.org/TR/2001/REC-SVG-20010904/DTD/svg10.dtd">
<svg version="1.0" xmlns="http://www.w3.org/2000/svg"
 width="202.000000pt" height="202.000000pt" viewBox="0 0 202.000000 202.000000"
 preserveAspectRatio="xMidYMid meet">

<g transform="translate(0.000000,202.000000) scale(0.100000,-0.100000)"
fill="#000000" stroke="none">
<path d="M0 1010 l0 -1010 1010 0 1010 0 0 358 0 357 -67 -3 c-46 -3 -62 -7
-52 -13 9 -7 -6 -8 -46 -4 -66 6 -57 -3 30 -29 52 -16 39 -15 -75 5 -114 20
-129 21 -70 0 30 -10 88 -28 129 -40 40 -12 71 -25 68 -28 -6 -5 -139 26 -251
59 -85 24 -129 31 -120 17 4 -7 -7 -8 -30 -3 -20 3 -36 2 -35 -2 4 -22 -3 -21
-25 1 -21 20 -32 23 -82 21 -55 -3 -59 -5 -62 -30 -3 -26 -32 -38 -32 -12 0
21 -29 41 -41 29 -8 -8 -7 -13 0 -17 21 -13 -6 -44 -34 -38 -29 5 -39 17 -30
33 5 7 13 5 25 -6 12 -11 20 -13 25 -5 11 18 -15 40 -47 40 -28 0 -29 -2 -26
-37 2 -31 7 -39 26 -41 12 -2 22 -10 22 -18 0 -17 -12 -18 -27 -3 -7 7 -13 7
-17 1 -7 -12 20 -42 38 -42 17 0 32 19 39 45 3 16 6 13 12 -12 4 -18 12 -33
17 -33 15 0 38 -27 38 -46 0 -13 -3 -14 -14 -5 -8 7 -34 11 -58 9 -42 -3 -43
-4 -52 -46 -5 -23 -12 -42 -15 -42 -4 0 -12 20 -19 45 -11 43 -32 59 -47 35
-4 -6 -15 -5 -30 2 -39 17 -55 4 -55 -45 0 -54 18 -80 51 -75 21 3 24 9 27 51
4 59 21 58 36 -3 12 -49 41 -74 56 -50 5 8 12 34 16 58 10 66 24 60 21 -10
l-2 -63 29 2 c38 3 65 28 48 45 -8 8 -15 8 -27 -2 -12 -10 -15 -10 -15 4 0 10
4 15 9 11 17 -10 24 18 8 30 -24 17 -21 22 14 22 l30 0 -3 -64 c-2 -46 -6 -62
-15 -59 -21 8 -43 -4 -58 -33 -7 -14 -23 -36 -35 -48 -11 -13 -17 -23 -13 -23
4 0 2 -4 -5 -8 -9 -6 4 -26 45 -70 85 -90 83 -88 70 -102 -10 -10 -8 -12 6 -7
11 4 16 3 12 -3 -17 -28 -56 -4 -168 101 l-117 111 -72 -68 c-102 -98 -100
-97 -138 -126 -28 -21 -37 -24 -47 -13 -14 16 0 39 71 114 28 30 43 51 32 47
-16 -6 -17 -4 -5 10 11 14 10 19 -9 35 -13 10 -27 33 -33 51 -8 29 -6 35 13
50 13 9 25 13 26 8 2 -6 10 -10 18 -10 10 0 14 14 14 55 0 42 3 55 15 55 12 0
15 -13 15 -55 0 -70 18 -72 22 -3 4 70 28 78 28 9 0 -29 5 -51 10 -51 7 0 10
24 8 63 l-3 62 -104 0 -104 0 -2 -33 c-4 -52 -13 -49 -13 4 0 55 14 83 38 77
14 -4 19 4 24 41 4 25 4 50 1 56 -3 5 1 10 9 10 13 0 16 -12 16 -55 0 -52 14
-73 26 -40 5 13 8 13 21 0 19 -19 28 -19 48 1 22 22 15 46 -18 62 -15 7 -27
17 -27 21 0 15 13 21 26 10 22 -18 39 -6 20 14 -23 23 -66 23 -66 0 -1 -17 -1
-17 -11 0 -8 14 -22 18 -57 16 -26 -1 -59 2 -74 5 -15 3 -30 2 -33 -4 -4 -7
-14 -5 -28 5 -24 17 -74 20 -79 5 -1 -5 -34 -12 -73 -14 -38 -2 -110 -16 -160
-31 -97 -28 -226 -57 -231 -52 -2 2 51 20 117 41 67 20 119 40 116 42 -3 3
-53 -4 -112 -16 -58 -12 -111 -20 -118 -17 -7 2 11 9 38 15 58 12 107 31 85
31 -21 1 -129 -15 -164 -24 -21 -6 -27 -5 -22 4 4 6 20 11 36 11 16 0 31 4 35
9 3 6 -13 8 -40 5 -45 -5 -46 -5 -62 33 -9 21 -18 61 -21 89 l-4 50 43 0 c58
-1 195 11 347 29 137 16 158 14 139 -16 -9 -15 -9 -23 1 -39 6 -11 12 -42 12
-70 0 -37 4 -50 14 -50 22 0 31 20 31 65 0 36 3 40 25 40 23 0 25 -4 28 -52 3
-45 6 -53 23 -53 17 0 19 8 19 88 0 126 29 161 37 44 6 -77 19 -108 53 -122
39 -16 90 -4 90 21 0 15 -7 19 -39 19 -56 0 -65 16 -56 105 6 67 10 77 35 95
15 11 33 20 39 20 36 0 28 73 -29 275 -25 87 -55 206 -140 562 -11 45 -20 89
-20 97 0 9 -4 16 -10 16 -23 0 6 34 44 50 41 18 37 19 -346 19 l-388 1 0
-1010z m684 -96 c9 -23 8 -24 -19 -24 -37 0 -31 35 6 39 4 1 10 -6 13 -15z
m1301 -234 l20 -9 -20 1 c-11 0 -31 4 -45 8 l-25 8 25 0 c14 0 34 -3 45 -8z
m-1438 -6 c-3 -3 -12 -4 -19 -1 -8 3 -5 6 6 6 11 1 17 -2 13 -5z m76 -1 c-7
-2 -19 -2 -25 0 -7 3 -2 5 12 5 14 0 19 -2 13 -5z m70 -17 c4 -10 1 -13 -8 -9
-8 3 -12 9 -9 14 7 12 11 11 17 -5z m127 -18 c0 -23 -3 -29 -9 -19 -8 12 -4
51 5 51 2 0 4 -15 4 -32z m-35 12 c3 -5 1 -10 -4 -10 -6 0 -11 5 -11 10 0 6 2
10 4 10 3 0 8 -4 11 -10z m-275 -20 c11 -7 8 -11 -15 -20 -74 -27 -141 -54
-150 -61 -5 -4 -41 -19 -78 -34 -55 -22 -71 -25 -80 -15 -9 10 -8 12 5 7 9 -3
22 1 29 10 12 13 150 82 167 83 4 1 25 9 47 20 46 22 54 23 75 10z m1212 -33
c40 -18 93 -42 118 -52 53 -22 70 -34 70 -47 0 -15 -43 -2 -149 47 -53 24
-113 50 -134 59 -23 9 -36 20 -32 27 9 14 37 6 127 -34z m-768 8 c14 -4 16 -9
8 -17 -8 -8 -15 -8 -27 2 -8 7 -15 9 -15 4 0 -11 -20 18 -20 29 0 4 8 3 18 -2
9 -5 26 -12 36 -16z m-809 -5 c3 -5 1 -10 -4 -10 -6 0 -11 5 -11 10 0 6 2 10
4 10 3 0 8 -4 11 -10z m1672 4 c-3 -3 -12 -4 -19 -1 -8 3 -5 6 6 6 11 1 17 -2
13 -5z m-500 -19 c0 -8 -4 -12 -9 -9 -4 3 -8 9 -8 15 0 5 4 9 8 9 5 0 9 -7 9
-15z m577 -4 c3 -4 -6 -6 -19 -3 -14 2 -25 6 -25 8 0 8 39 4 44 -5z m-1344 -5
c0 -3 -4 -8 -10 -11 -5 -3 -10 -1 -10 4 0 6 5 11 10 11 6 0 10 -2 10 -4z m347
-133 c0 -25 -4 -33 -16 -31 -9 1 -22 -1 -28 -5 -7 -5 -13 -4 -13 2 0 5 8 15
18 21 16 10 16 10 0 20 -26 16 -22 27 10 27 26 0 29 -4 29 -34z m193 -3 c0
-29 -4 -40 -15 -40 -11 0 -15 11 -15 40 0 29 4 40 15 40 11 0 15 -11 15 -40z
m281 -33 c-8 -8 -11 -3 -11 19 1 25 2 27 11 11 8 -14 8 -22 0 -30z m-614 -24
c-3 -10 -5 -2 -5 17 0 19 2 27 5 18 2 -10 2 -26 0 -35z m47 -19 c23 -9 20 -23
-4 -17 -11 3 -20 9 -20 14 0 11 3 11 24 3z"/>
<path d="M1355 2004 c49 -18 75 -41 58 -52 -12 -8 -33 -80 -64 -227 -35 -166
-61 -279 -91 -395 -71 -276 -77 -315 -47 -331 11 -5 17 -13 15 -18 -3 -4 1
-19 9 -34 9 -18 12 -55 10 -121 l-4 -96 34 0 c48 0 82 15 90 40 10 31 -1 36
-34 17 -33 -19 -41 -14 -41 25 0 25 4 28 31 28 24 0 30 4 27 18 -2 10 -13 17
-28 17 -18 0 -26 6 -28 23 -4 24 29 45 36 24 5 -16 49 -15 55 1 10 29 19 -8
21 -95 2 -85 3 -93 21 -93 18 0 20 8 22 83 1 45 6 89 11 98 8 14 10 14 25 -1
13 -13 17 -35 17 -96 0 -72 2 -79 20 -79 18 0 20 7 20 59 0 32 3 72 6 89 6 28
8 29 33 21 24 -8 355 -39 415 -39 l26 0 0 575 0 575 -352 -1 c-322 0 -349 -2
-313 -15z"/>
<path d="M947 1531 c-14 -16 -27 -27 -31 -24 -3 3 -3 -16 -1 -43 3 -27 10 -98
15 -159 6 -60 16 -134 22 -162 12 -55 28 -71 28 -29 0 14 5 28 11 32 9 5 10
48 5 156 -5 125 -4 153 9 179 17 32 17 71 0 68 -5 0 -9 -6 -7 -12 1 -7 -4 -4
-12 6 -13 17 -15 16 -39 -12z"/>
<path d="M1098 1541 c-15 -6 -15 -10 3 -61 21 -61 25 -120 7 -120 -16 0 -3
-217 16 -254 l15 -29 11 42 c17 65 40 248 40 327 0 63 -2 72 -22 81 -36 18
-52 21 -70 14z"/>
<path d="M890 960 c0 -11 7 -23 15 -26 11 -5 15 -22 15 -70 0 -100 28 -137 95
-120 36 9 43 32 46 137 2 80 -1 94 -15 97 -18 4 -19 0 -16 -83 2 -79 -12 -117
-43 -113 -21 3 -22 9 -27 98 l-5 95 -32 3 c-28 3 -33 0 -33 -18z"/>
<path d="M1084 943 c3 -21 6 -75 6 -120 l0 -83 55 0 c47 0 57 3 71 25 11 17
14 34 9 53 -4 15 -6 49 -6 76 2 68 -16 86 -87 86 l-55 0 7 -37z m86 -18 c16
-20 5 -45 -20 -45 -16 0 -20 7 -20 30 0 33 19 40 40 15z m19 -99 c18 -22 2
-46 -30 -46 -26 0 -29 4 -29 30 0 25 4 30 24 30 13 0 29 -6 35 -14z"/>
<path d="M1968 723 c6 -2 18 -2 25 0 6 3 1 5 -13 5 -14 0 -19 -2 -12 -5z"/>
<path d="M1000 631 c0 -42 5 -62 17 -72 9 -8 17 -14 18 -14 1 0 9 6 18 14 23
19 24 116 1 125 -45 17 -54 9 -54 -53z m56 15 c8 -34 1 -61 -16 -61 -16 0 -26
45 -16 71 8 22 25 17 32 -10z"/>
<path d="M1088 654 c-5 -45 1 -94 13 -94 5 0 9 12 9 26 0 30 23 28 28 -2 9
-47 21 -33 20 22 -1 66 -10 84 -43 84 -19 0 -24 -6 -27 -36z m47 -4 c0 -7 -6
-15 -12 -17 -8 -3 -13 4 -13 17 0 13 5 20 13 18 6 -3 12 -11 12 -18z"/>
</g>
</svg>
